<?xml version="1.0" encoding="utf-8"?>
<!-- Generator: Adobe Illustrator 19.0.0, SVG Export Plug-In . SVG Version: 6.00 Build 0)  -->
<svg version="1.1" xmlns="http://www.w3.org/2000/svg" xmlns:xlink="http://www.w3.org/1999/xlink" x="0px" y="0px"
	 viewBox="0 0 100 100" enable-background="new 0 0 100 100" xml:space="preserve">
<g id="Layer_1">
	
		<ellipse id="XMLID_1_" fill="none" stroke="#000000" stroke-width="2" stroke-miterlimit="10" cx="51.083" cy="75.417" rx="19.25" ry="4.75"/>
	<ellipse id="XMLID_2_" stroke="#000000" stroke-miterlimit="10" cx="50.917" cy="75.333" rx="10.083" ry="1.667"/>
	<path id="XMLID_3_" stroke="#000000" stroke-width="2" stroke-miterlimit="10" d="M51.585,66.667c-1.374-0.21-3.004-1.81-6.208-5
		c-1.492-1.486-2.603-2.592-4.2-4.5c-2.493-2.98-5.41-6.467-7.304-10.667c-1.373-3.046-3.763-8.097-2.191-13.75
		C33.666,25.618,41.719,19,51.585,19h-0.699c9.866,0,17.919,6.618,19.902,13.75c1.572,5.653-0.818,10.829-2.191,13.875
		c-1.893,4.2-4.81,7.624-7.304,10.604c-1.596,1.908-2.707,2.983-4.2,4.469c-3.204,3.19-4.834,4.774-6.208,4.984"/>
	
		<ellipse id="XMLID_4_" fill="#FFFFFF" stroke="#000000" stroke-width="2" stroke-miterlimit="10" cx="51.333" cy="38.833" rx="8.667" ry="8.5"/>
</g>
<g id="Layer_2">
</g>
<g id="Layer_3">
</g>
</svg>
