<?xml version="1.0" encoding="utf-8"?>
<!-- Generator: Adobe Illustrator 19.0.0, SVG Export Plug-In . SVG Version: 6.00 Build 0)  -->
<svg version="1.1" xmlns="http://www.w3.org/2000/svg" xmlns:xlink="http://www.w3.org/1999/xlink" x="0px" y="0px"
	 viewBox="0 0 100 100" enable-background="new 0 0 100 100" xml:space="preserve">
<g id="Layer_1">
	<path id="XMLID_1_" fill="none" stroke="#000000" stroke-width="4" stroke-miterlimit="10" d="M77.744,89.868H20.969
		c-6.6,0-12-5.4-12-12v-56.93c0-6.6,5.4-12,12-12h56.775c6.6,0,12,5.4,12,12v56.93C89.744,84.468,84.344,89.868,77.744,89.868z"/>
</g>
<g id="Layer_2">
	<path id="XMLID_2_" fill="none" stroke="#000000" stroke-width="4" stroke-miterlimit="10" d="M32.76,61.24l5.511,5.447l0,0
		L26.75,73L32.76,61.24C52.168,41.866,71.576,22.491,90.984,3.116C91.353,2.994,92.09,2.806,93,2.961
		c1.147,0.195,1.888,0.819,2.171,1.085c0.223,0.189,1.246,1.096,1.395,2.636C96.685,7.905,96.184,8.814,96,9.116
		C77,28.491,57.183,47.807,37.775,67.182"/>
</g>
</svg>
